<svg width="34" height="34" viewBox="0 0 34 34" fill="none" xmlns="http://www.w3.org/2000/svg">
<path d="M17.0001 29.2333L15.0667 27.4999C12.8223 25.4777 10.9667 23.7333 9.50008 22.2666C8.03341 20.7999 6.86675 19.483 6.00008 18.3159C5.13341 17.1497 4.52808 16.0777 4.18408 15.0999C3.83919 14.1222 3.66675 13.1222 3.66675 12.0999C3.66675 10.011 4.36675 8.2666 5.76675 6.8666C7.16675 5.4666 8.91119 4.7666 11.0001 4.7666C12.1556 4.7666 13.2556 5.01105 14.3001 5.49993C15.3445 5.98882 16.2445 6.67771 17.0001 7.5666C17.7556 6.67771 18.6556 5.98882 19.7001 5.49993C20.7445 5.01105 21.8445 4.7666 23.0001 4.7666C25.089 4.7666 26.8334 5.4666 28.2334 6.8666C29.6334 8.2666 30.3334 10.011 30.3334 12.0999C30.3334 13.1222 30.1614 14.1222 29.8174 15.0999C29.4725 16.0777 28.8667 17.1497 28.0001 18.3159C27.1334 19.483 25.9667 20.7999 24.5001 22.2666C23.0334 23.7333 21.1779 25.4777 18.9334 27.4999L17.0001 29.2333Z" fill="#E84118"/>
</svg>
